<?xml version="1.0" standalone="no"?>
<!DOCTYPE svg PUBLIC "-//W3C//DTD SVG 20010904//EN"
 "http://www.w3.org/TR/2001/REC-SVG-20010904/DTD/svg10.dtd">
<svg version="1.0" xmlns="http://www.w3.org/2000/svg"
 width="254.000000pt" height="254.000000pt" viewBox="0 0 254.000000 254.000000"
 preserveAspectRatio="xMidYMid meet">
<metadata>
Created by potrace 1.14, written by Peter Selinger 2001-2017
</metadata>
<g transform="translate(0.000000,254.000000) scale(0.100000,-0.100000)"
fill="#000000" stroke="none">
<path d="M93 2525 c-17 -8 -44 -31 -60 -51 l-28 -37 -2 -1162 -3 -1162 31 -42
c55 -76 -34 -72 1252 -69 l1154 3 37 29 c21 16 44 43 52 60 11 26 13 232 11
1188 -2 1151 -2 1157 -23 1184 -11 15 -33 37 -48 48 -27 21 -33 21 -1184 23
-973 1 -1162 -1 -1189 -12z"/>
</g>
</svg>
